<svg viewBox="0 0 800 450" xmlns="http://www.w3.org/2000/svg">
  <defs>
    <linearGradient id="bg" x1="0" y1="0" x2="800" y2="450" gradientUnits="userSpaceOnUse">
      <stop offset="0" stop-color="#12161c"/>
      <stop offset="1" stop-color="#1d2733"/>
    </linearGradient>
    <radialGradient id="glow" cx="50%" cy="35%" r="65%">
      <stop offset="0" stop-color="#ffbd39" stop-opacity="0.3"/>
      <stop offset="1" stop-color="#ffbd39" stop-opacity="0"/>
    </radialGradient>
  </defs>
  <rect width="800" height="450" fill="url(#bg)"/>
  <rect width="800" height="450" fill="url(#glow)"/>
  <g transform="translate(20,20)">
    <circle cx="10" cy="10" r="6" fill="#ff5f56"/>
    <circle cx="32" cy="10" r="6" fill="#ffbd2e"/>
    <circle cx="54" cy="10" r="6" fill="#27c93f"/>
  </g>
  <!-- source docs -->
  <g transform="translate(230,110)">
    <rect x="0" y="0" width="80" height="100" rx="6" fill="#ffffff" opacity="0.9"/>
    <rect x="12" y="16" width="56" height="8" fill="#e04b4b"/>
    <text x="40" y="70" text-anchor="middle" font-family="Arial, sans-serif" font-size="16" font-weight="700" fill="#e04b4b">PDF</text>
    <rect x="30" y="20" width="80" height="100" rx="6" fill="#ffffff" transform="translate(0,10)"/>
    <text x="70" y="100" text-anchor="middle" font-family="Arial, sans-serif" font-size="16" font-weight="700" fill="#2b6cb0" transform="translate(0,10)">DOC</text>
    <rect x="60" y="40" width="80" height="100" rx="6" fill="#ffffff" transform="translate(0,10)"/>
    <text x="100" y="120" text-anchor="middle" font-family="Arial, sans-serif" font-size="16" font-weight="700" fill="#2f855a" transform="translate(0,10)">XLS</text>
  </g>
  <!-- arrow -->
  <g stroke="#ffbd39" stroke-width="8" stroke-linecap="round">
    <line x1="415" y1="215" x2="475" y2="215"/>
    <polyline points="455,195 475,215 455,235" fill="none"/>
  </g>
  <!-- markdown output -->
  <g transform="translate(510,120)">
    <rect x="0" y="0" width="110" height="140" rx="8" fill="#ffbd39"/>
    <text x="55" y="80" text-anchor="middle" font-family="Georgia, serif" font-size="42" font-weight="700" fill="#12161c">M&#8595;</text>
  </g>
  <text x="400" y="380" text-anchor="middle" font-family="Arial, Helvetica, sans-serif" font-size="30" font-weight="700" fill="#ffffff">files-to-markdown</text>
  <text x="400" y="412" text-anchor="middle" font-family="Arial, Helvetica, sans-serif" font-size="16" fill="#ffbd39">npm package &#183; cut LLM token usage</text>
</svg>
