<svg viewBox="0 0 800 450" xmlns="http://www.w3.org/2000/svg">
  <defs>
    <linearGradient id="bg" x1="0" y1="0" x2="800" y2="450" gradientUnits="userSpaceOnUse">
      <stop offset="0" stop-color="#0f172a"/>
      <stop offset="1" stop-color="#1e2a4a"/>
    </linearGradient>
    <radialGradient id="glow" cx="50%" cy="35%" r="65%">
      <stop offset="0" stop-color="#ffbd39" stop-opacity="0.35"/>
      <stop offset="1" stop-color="#ffbd39" stop-opacity="0"/>
    </radialGradient>
  </defs>
  <rect width="800" height="450" fill="url(#bg)"/>
  <rect width="800" height="450" fill="url(#glow)"/>
  <g opacity="0.15" stroke="#ffffff" stroke-width="1">
    <circle cx="400" cy="225" r="120" fill="none"/>
    <circle cx="400" cy="225" r="170" fill="none"/>
    <circle cx="400" cy="225" r="220" fill="none"/>
  </g>
  <g transform="translate(20,20)">
    <circle cx="10" cy="10" r="6" fill="#ff5f56"/>
    <circle cx="32" cy="10" r="6" fill="#ffbd2e"/>
    <circle cx="54" cy="10" r="6" fill="#27c93f"/>
  </g>
  <!-- waveform -->
  <g stroke="#ffbd39" stroke-width="6" stroke-linecap="round" fill="none">
    <line x1="300" y1="235" x2="300" y2="215"/>
    <line x1="320" y1="255" x2="320" y2="195"/>
    <line x1="340" y1="270" x2="340" y2="180"/>
    <line x1="360" y1="245" x2="360" y2="205"/>
    <line x1="380" y1="285" x2="380" y2="165"/>
    <line x1="400" y1="255" x2="400" y2="195"/>
    <line x1="420" y1="270" x2="420" y2="180"/>
    <line x1="440" y1="245" x2="440" y2="205"/>
    <line x1="460" y1="255" x2="460" y2="195"/>
    <line x1="480" y1="235" x2="480" y2="215"/>
  </g>
  <!-- headset icon -->
  <g transform="translate(400,180)" stroke="#ffffff" stroke-width="7" fill="none" stroke-linecap="round">
    <path d="M-55,10 A55,55 0 0 1 55,10"/>
    <rect x="-65" y="5" width="18" height="34" rx="9" fill="#ffffff" stroke="none"/>
    <rect x="47" y="5" width="18" height="34" rx="9" fill="#ffffff" stroke="none"/>
    <path d="M65,25 v20 a15,15 0 0 1 -15,15 h-10" stroke="#ffbd39"/>
  </g>
  <text x="400" y="380" text-anchor="middle" font-family="Arial, Helvetica, sans-serif" font-size="34" font-weight="700" fill="#ffffff">AI Call Center</text>
  <text x="400" y="412" text-anchor="middle" font-family="Arial, Helvetica, sans-serif" font-size="16" fill="#ffbd39">Voice AI &#183; NestJS &#183; ShurjoPay</text>
</svg>
