<svg viewBox="0 0 800 450" xmlns="http://www.w3.org/2000/svg">
  <defs>
    <linearGradient id="bg" x1="0" y1="0" x2="800" y2="450" gradientUnits="userSpaceOnUse">
      <stop offset="0" stop-color="#150a1f"/>
      <stop offset="1" stop-color="#241338"/>
    </linearGradient>
    <radialGradient id="glow" cx="50%" cy="35%" r="65%">
      <stop offset="0" stop-color="#ffbd39" stop-opacity="0.3"/>
      <stop offset="1" stop-color="#ffbd39" stop-opacity="0"/>
    </radialGradient>
  </defs>
  <rect width="800" height="450" fill="url(#bg)"/>
  <rect width="800" height="450" fill="url(#glow)"/>
  <g transform="translate(20,20)">
    <circle cx="10" cy="10" r="6" fill="#ff5f56"/>
    <circle cx="32" cy="10" r="6" fill="#ffbd2e"/>
    <circle cx="54" cy="10" r="6" fill="#27c93f"/>
  </g>
  <!-- shield -->
  <g transform="translate(400,190)">
    <path d="M0,-95 L85,-65 V15 C85,75 45,110 0,130 C-45,110 -85,75 -85,15 V-65 Z" fill="#ffbd39"/>
    <path d="M0,-95 L85,-65 V15 C85,75 45,110 0,130 Z" fill="#ffffff" opacity="0.12"/>
    <!-- key -->
    <circle cx="-18" cy="-10" r="18" fill="none" stroke="#12161c" stroke-width="9"/>
    <line x1="-4" y1="4" x2="34" y2="42" stroke="#12161c" stroke-width="9" stroke-linecap="round"/>
    <line x1="18" y1="28" x2="30" y2="16" stroke="#12161c" stroke-width="9" stroke-linecap="round"/>
    <line x1="26" y1="36" x2="38" y2="24" stroke="#12161c" stroke-width="9" stroke-linecap="round"/>
  </g>
  <text x="400" y="380" text-anchor="middle" font-family="Arial, Helvetica, sans-serif" font-size="32" font-weight="700" fill="#ffffff">secrets-guardian</text>
  <text x="400" y="410" text-anchor="middle" font-family="Arial, Helvetica, sans-serif" font-size="16" fill="#ffbd39">npm package &#183; catch leaked keys before commit</text>
</svg>
