<svg viewBox="0 0 800 450" xmlns="http://www.w3.org/2000/svg">
  <defs>
    <linearGradient id="bg" x1="0" y1="0" x2="800" y2="450" gradientUnits="userSpaceOnUse">
      <stop offset="0" stop-color="#181321"/>
      <stop offset="1" stop-color="#2d2140"/>
    </linearGradient>
    <radialGradient id="glow" cx="50%" cy="35%" r="65%">
      <stop offset="0" stop-color="#ffbd39" stop-opacity="0.3"/>
      <stop offset="1" stop-color="#ffbd39" stop-opacity="0"/>
    </radialGradient>
  </defs>
  <rect width="800" height="450" fill="url(#bg)"/>
  <rect width="800" height="450" fill="url(#glow)"/>
  <g transform="translate(20,20)">
    <circle cx="10" cy="10" r="6" fill="#ff5f56"/>
    <circle cx="32" cy="10" r="6" fill="#ffbd2e"/>
    <circle cx="54" cy="10" r="6" fill="#27c93f"/>
  </g>
  <g opacity="0.5" fill="#ffffff">
    <circle cx="150" cy="120" r="3"/>
    <circle cx="620" cy="100" r="3"/>
    <circle cx="670" cy="300" r="3"/>
    <circle cx="120" cy="320" r="3"/>
    <circle cx="220" cy="80" r="2"/>
    <circle cx="560" cy="330" r="2"/>
  </g>
  <!-- open book -->
  <g transform="translate(400,200)">
    <path d="M-90,10 Q-45,-25 0,10 L0,90 Q-45,55 -90,90 Z" fill="#ffffff"/>
    <path d="M90,10 Q45,-25 0,10 L0,90 Q45,55 90,90 Z" fill="#f0f0f0"/>
    <path d="M-70,20 Q-35,0 0,25" stroke="#c7a8ff" stroke-width="4" fill="none"/>
    <path d="M-70,40 Q-35,20 0,45" stroke="#c7a8ff" stroke-width="4" fill="none"/>
    <path d="M70,20 Q35,0 0,25" stroke="#c7a8ff" stroke-width="4" fill="none"/>
    <path d="M70,40 Q35,20 0,45" stroke="#c7a8ff" stroke-width="4" fill="none"/>
  </g>
  <!-- spark / AI glint -->
  <g fill="#ffbd39">
    <path d="M400,90 l8,20 20,8 -20,8 -8,20 -8,-20 -20,-8 20,-8 Z"/>
    <path d="M540,150 l5,12 12,5 -12,5 -5,12 -5,-12 -12,-5 12,-5 Z"/>
  </g>
  <text x="400" y="380" text-anchor="middle" font-family="Arial, Helvetica, sans-serif" font-size="34" font-weight="700" fill="#ffffff">EduAI</text>
  <text x="400" y="412" text-anchor="middle" font-family="Arial, Helvetica, sans-serif" font-size="16" fill="#ffbd39">AI Learning &#183; Claude &#183; React</text>
</svg>
