<svg viewBox="0 0 800 450" xmlns="http://www.w3.org/2000/svg">
  <defs>
    <linearGradient id="bg" x1="0" y1="0" x2="800" y2="450" gradientUnits="userSpaceOnUse">
      <stop offset="0" stop-color="#0c1f16"/>
      <stop offset="1" stop-color="#123522"/>
    </linearGradient>
    <radialGradient id="glow" cx="50%" cy="35%" r="65%">
      <stop offset="0" stop-color="#ffbd39" stop-opacity="0.3"/>
      <stop offset="1" stop-color="#ffbd39" stop-opacity="0"/>
    </radialGradient>
  </defs>
  <rect width="800" height="450" fill="url(#bg)"/>
  <rect width="800" height="450" fill="url(#glow)"/>
  <g transform="translate(20,20)">
    <circle cx="10" cy="10" r="6" fill="#ff5f56"/>
    <circle cx="32" cy="10" r="6" fill="#ffbd2e"/>
    <circle cx="54" cy="10" r="6" fill="#27c93f"/>
  </g>
  <!-- phone -->
  <g transform="translate(330,90)">
    <rect x="0" y="0" width="120" height="230" rx="18" fill="#1c1c1c" stroke="#3a3a3a" stroke-width="3"/>
    <rect x="10" y="16" width="100" height="180" rx="4" fill="#0f2a1c"/>
    <rect x="24" y="34" width="72" height="14" rx="3" fill="#ffffff" opacity="0.85"/>
    <rect x="24" y="56" width="50" height="10" rx="3" fill="#ffffff" opacity="0.5"/>
    <rect x="24" y="90" width="72" height="30" rx="6" fill="#1e4a30" stroke="#4ade80" stroke-width="2"/>
    <rect x="24" y="130" width="72" height="30" rx="6" fill="#1e4a30" stroke="#4ade80" stroke-width="2"/>
    <circle cx="60" cy="208" r="8" fill="#3a3a3a"/>
  </g>
  <!-- check shield -->
  <g transform="translate(480,150)">
    <path d="M0,-45 L45,-25 V15 C45,55 20,80 0,90 C-20,80 -45,55 -45,15 V-25 Z" fill="#ffbd39"/>
    <path d="M-20,0 L-5,18 L22,-15" stroke="#123522" stroke-width="9" fill="none" stroke-linecap="round" stroke-linejoin="round"/>
  </g>
  <text x="400" y="380" text-anchor="middle" font-family="Arial, Helvetica, sans-serif" font-size="30" font-weight="700" fill="#ffffff">BD Payment Verify</text>
  <text x="400" y="412" text-anchor="middle" font-family="Arial, Helvetica, sans-serif" font-size="16" fill="#ffbd39">bKash &#183; Nagad &#183; Rocket Auto-Verify</text>
</svg>
